<?xml version="1.0" encoding="UTF-8" standalone="no"?><svg xmlns="http://www.w3.org/2000/svg" xml:space="preserve" width="240.009" height="409.914" viewBox="0 0 63.5024 108.4564"><defs><clipPath id="h" clipPathUnits="userSpaceOnUse"><path d="M0 2160h3840V0H0Z"/></clipPath><clipPath id="k" clipPathUnits="userSpaceOnUse"><path d="M0 2160h3840V0H0Z"/></clipPath><clipPath id="a" clipPathUnits="userSpaceOnUse"><path d="M1194.42 1940.44h55.86v-75.05h-55.86z"/></clipPath><clipPath id="b" clipPathUnits="userSpaceOnUse"><path d="M1198.08 1936.67h47.54v-66.28h-47.54z"/></clipPath><clipPath id="c" clipPathUnits="userSpaceOnUse"><path d="M1201.81 1932.01h41.29v-10.09h-41.29z"/></clipPath><clipPath id="d" clipPathUnits="userSpaceOnUse"><path d="M1201.1 1924.5h41.45v-4.72h-41.45z"/></clipPath><clipPath id="e" clipPathUnits="userSpaceOnUse"><path d="M1214.75 1882.45h13.82v-5.16h-13.82z"/></clipPath><clipPath id="f" clipPathUnits="userSpaceOnUse"><path d="M1209.6 1921.31h24.67v-37.99h-24.67z"/></clipPath><linearGradient id="g" x1="0" x2="1" y1="0" y2="0" gradientTransform="scale(187.65332 -187.65332) rotate(-30 -8.726 -39.948)" gradientUnits="userSpaceOnUse" spreadMethod="pad"><stop offset="0" style="stop-opacity:1;stop-color:#008684"/><stop offset=".036" style="stop-opacity:1;stop-color:#008684"/><stop offset=".405" style="stop-opacity:1;stop-color:#0a7dab"/><stop offset=".47" style="stop-opacity:1;stop-color:#0a7dab"/><stop offset=".515" style="stop-opacity:1;stop-color:#0a7dab"/><stop offset=".916" style="stop-opacity:1;stop-color:#16b4e7"/><stop offset="1" style="stop-opacity:1;stop-color:#16b4e7"/></linearGradient><linearGradient id="i" x1="0" x2="1" y1="0" y2="0" gradientTransform="matrix(39.03276 0 0 -39.03276 3602.812 1974.39)" gradientUnits="userSpaceOnUse" spreadMethod="pad"><stop offset="0" style="stop-opacity:1;stop-color:#31ecff"/><stop offset=".567" style="stop-opacity:1;stop-color:#0373ff"/><stop offset=".812" style="stop-opacity:1;stop-color:#0373ff"/><stop offset="1" style="stop-opacity:1;stop-color:#0373ff"/></linearGradient><linearGradient id="j" x1="0" x2="1" y1="0" y2="0" gradientTransform="scale(-101.78187 101.78187) rotate(-70 -3.415 35.784)" gradientUnits="userSpaceOnUse" spreadMethod="pad"><stop offset="0" style="stop-opacity:1;stop-color:#31ecff"/><stop offset=".561" style="stop-opacity:1;stop-color:#0373ff"/><stop offset=".803" style="stop-opacity:1;stop-color:#0373ff"/><stop offset="1" style="stop-opacity:1;stop-color:#0373ff"/></linearGradient></defs><path d="M730.809 911.846H0V2160h730.808z" style="fill:#fff;fill-opacity:1;fill-rule:nonzero;stroke:none;stroke-width:5.17437" transform="matrix(.0869 0 0 -.0869 0 187.6895)"/><g style="display:inline"><path d="M3692.949 1844.164h-141.236v65.774h141.236z" style="fill:url(#g);stroke:none" transform="matrix(.44962 0 0 -.44962 -1596.9046 937.621)"/></g><g clip-path="url(#h)" style="display:inline" transform="matrix(.44962 0 0 -.44962 -1596.9046 937.621)"><path d="M0 0c-.122.121-.183.334-.031.517l2.31 2.644c.122.152.304.152.456.03 1.368-1.094 3.222-2.127 5.41-2.127 2.158 0 3.374 1.002 3.374 2.462 0 1.215-.729 1.975-3.191 2.309l-1.095.153C3.039 6.565.699 8.54.699 12.187c0 3.8 2.857 6.323 7.325 6.323 2.735 0 5.289-.821 7.021-2.158.182-.122.213-.244.061-.456l-1.854-2.767c-.122-.151-.274-.182-.426-.09-1.58 1.033-3.1 1.58-4.802 1.58-1.824 0-2.766-.942-2.766-2.249 0-1.185.851-1.945 3.221-2.279l1.095-.153c4.255-.577 6.505-2.522 6.505-6.261 0-3.738-2.766-6.503-8.116-6.503C4.741-2.826 1.61-1.55 0 0" style="fill:#1a1659;fill-opacity:1;fill-rule:nonzero;stroke:none" transform="translate(3571.624 1935.2)"/><path d="M0 0c0 .182.122.303.304.303h13.251c.183 0 .305-.121.305-.303v-3.252c0-.183-.122-.304-.305-.304H4.65c-.122 0-.182-.061-.182-.183v-4.103c0-.122.06-.182.182-.182h7.416c.182 0 .304-.122.304-.304v-3.222c0-.182-.122-.304-.304-.304H4.65c-.122 0-.182-.061-.182-.182v-4.286c0-.121.06-.182.182-.182h8.905c.183 0 .305-.122.305-.303v-3.253c0-.182-.122-.304-.305-.304H.304c-.182 0-.304.122-.304.304Z" style="fill:#1a1659;fill-opacity:1;fill-rule:nonzero;stroke:none" transform="translate(3590.103 1953.072)"/><path d="M0 0c0 1.55-1.094 2.553-2.796 2.553h-3.647c-.122 0-.183-.061-.183-.183v-4.772c0-.121.061-.182.183-.182h3.647C-1.094-2.584 0-1.581 0 0m.334-14.254c-.273 0-.365.09-.456.304l-3.556 7.567h-2.765c-.122 0-.183-.06-.183-.182v-7.385c0-.183-.122-.304-.304-.304h-3.86c-.182 0-.304.121-.304.304V6.109c0 .182.122.304.304.304h8.237c4.224 0 7.02-2.644 7.02-6.413 0-2.645-1.398-4.742-3.677-5.745l4.073-8.145c.09-.182 0-.364-.213-.364z" style="fill:#1a1659;fill-opacity:1;fill-rule:nonzero;stroke:none" transform="translate(3617.761 1946.963)"/><path d="M0 0c0 .182.122.303.304.303h3.86c.183 0 .304-.121.304-.303v-20.06c0-.182-.121-.304-.304-.304H.304c-.182 0-.304.122-.304.304Z" style="fill:#1a1659;fill-opacity:1;fill-rule:nonzero;stroke:none" transform="translate(3625.025 1953.072)"/><path d="M0 0c0 .182.121.303.304.303h13.251c.183 0 .305-.121.305-.303v-3.252c0-.183-.122-.304-.305-.304H4.65c-.121 0-.182-.061-.182-.183v-4.103c0-.122.061-.182.182-.182h7.416c.182 0 .304-.122.304-.304v-3.222c0-.182-.122-.304-.304-.304H4.65c-.121 0-.182-.061-.182-.182v-4.286c0-.121.061-.182.182-.182h8.905c.183 0 .305-.122.305-.303v-3.253c0-.182-.122-.304-.305-.304H.304c-.183 0-.304.122-.304.304Z" style="fill:#1a1659;fill-opacity:1;fill-rule:nonzero;stroke:none" transform="translate(3632.836 1953.072)"/><path d="m0 0-2.34 7.234h-.091L-4.772 0Zm-4.65 12.644c.061.181.182.303.395.303h3.83c.213 0 .334-.122.394-.303l6.99-20.06c.062-.183 0-.304-.212-.304H2.796c-.213 0-.334.091-.394.304L1.216-3.8h-7.234l-1.155-3.616c-.061-.213-.182-.304-.395-.304h-3.982c-.213 0-.273.121-.213.304z" style="fill:#1a1659;fill-opacity:1;fill-rule:nonzero;stroke:none" transform="translate(3666.178 1940.428)"/><path d="M3571.952 1925.119h33.586v-7.589h-33.586z" style="fill:#00a445;fill-opacity:1;fill-rule:nonzero;stroke:none"/><path d="M3605.539 1925.119h33.586v-7.589h-33.586z" style="fill:#e3e3e2;fill-opacity:1;fill-rule:nonzero;stroke:none"/><path d="M3639.125 1925.119h33.586v-7.589h-33.586z" style="fill:#db052c;fill-opacity:1;fill-rule:nonzero;stroke:none"/><path d="M0 0c-.129.935-.524 1.693-1.185 2.274-.662.581-1.484.871-2.468.871-.968 0-1.786-.286-2.455-.859C-6.777 1.714-7.185.951-7.33 0Zm2.83-2.008H-7.306c.178-.951.641-1.705 1.391-2.261.75-.557 1.682-.835 2.794-.835 1.419 0 2.589.468 3.508 1.403l1.621-1.863A5.465 5.465 0 0 0-.193-7.136c-.888-.355-1.887-.532-3-.532-1.42 0-2.67.281-3.75.846s-1.915 1.351-2.504 2.359c-.588 1.008-.882 2.149-.882 3.423 0 1.258.286 2.391.858 3.399a6.097 6.097 0 0 0 2.383 2.358c1.016.565 2.161.847 3.435.847 1.258 0 2.383-.278 3.375-.835a5.902 5.902 0 0 0 2.322-2.346c.557-1.008.835-2.174.835-3.496 0-.209-.016-.508-.049-.895m-45.32 9.49c.561 0 1.023.181 1.385.542.361.361.541.807.541 1.337 0 .497-.185.911-.554 1.24-.369.329-.827.494-1.372.494-.547 0-1.004-.173-1.374-.518a1.692 1.692 0 0 1-.553-1.288c0-.515.184-.944.553-1.289.37-.346.827-.518 1.374-.518M-57.496-.996c0 1.252.321 2.212.964 2.878.641.666 1.517 1 2.625 1 .979 0 1.734-.286 2.264-.855.53-.571.795-1.418.795-2.541v-6.985h3.011v7.37c0 1.863-.49 3.267-1.47 4.215-.979.947-2.28 1.421-3.902 1.421-.947 0-1.798-.153-2.553-.458a4.716 4.716 0 0 1-1.879-1.348v1.662h-2.866V-7.499h3.011zm-16.065.963h7.298c-.129.931-.522 1.686-1.18 2.264-.659.578-1.478.868-2.457.868-.964 0-1.779-.286-2.445-.856-.666-.57-1.072-1.328-1.216-2.276m.385-6.792c-1.076.562-1.907 1.345-2.493 2.348-.586 1.004-.879 2.14-.879 3.409 0 1.252.285 2.38.855 3.384a6.067 6.067 0 0 0 2.373 2.348c1.011.562 2.151.843 3.42.843 1.252 0 2.372-.277 3.36-.831a5.885 5.885 0 0 0 2.312-2.336c.554-1.004.831-2.164.831-3.481 0-.209-.016-.505-.048-.891h-10.092c.176-.948.638-1.698 1.385-2.252.746-.554 1.674-.831 2.782-.831 1.412 0 2.577.466 3.492 1.397l1.614-1.855a5.44 5.44 0 0 0-2.192-1.565c-.883-.353-1.878-.53-2.986-.53-1.414 0-2.658.281-3.734.843m29.168-.674h3.01V5.363h-3.01zm10.107 17.949h-3.024V-7.5h3.024zm5.55-2.903c.564 0 1.028.182 1.391.545.363.363.544.81.544 1.343 0 .499-.185.914-.556 1.245-.371.33-.831.496-1.379.496s-1.008-.173-1.379-.52a1.699 1.699 0 0 1-.556-1.294c0-.516.185-.948.556-1.294.371-.347.831-.521 1.379-.521m12.023-15.046 5.539 12.918h-2.903l-4.136-9.58-4.016 9.58h-3.145l5.54-12.918zm-10.502 0h-3.024V5.419h3.024z" style="fill:#fff;fill-opacity:1;fill-rule:nonzero;stroke:none" transform="translate(3659.166 1894.875)"/><path d="m0 0 19.514 51.531L27.94 29.28H17.302l-7.255-19.16h25.149L39.028 0Z" style="fill:#1a1659;fill-opacity:1;fill-rule:nonzero;stroke:none" transform="translate(3602.817 1990.353)"/><path d="m0 0 50.379 31.925H19.514ZM0 0l-50.379 31.925h30.865z" style="fill:#1a1659;fill-opacity:1;fill-rule:nonzero;stroke:none" transform="translate(3622.331 1958.428)"/></g><g style="display:inline"><path d="m3602.812 1990.353 19.519-31.926 19.514 31.926z" style="fill:url(#i);stroke:none" transform="matrix(.44962 0 0 -.44962 -1596.9046 937.621)"/></g><g style="display:inline"><path d="m3608.416 2075.266-36.464-84.914h30.865l19.514 51.532 8.426-22.251h-10.637l-7.256-19.161h25.149l3.832-10.12h30.865l-36.464 84.914z" style="fill:url(#j);stroke:none" transform="matrix(.44962 0 0 -.44962 -1596.9046 937.621)"/></g><g clip-path="url(#k)" style="display:inline" transform="matrix(.44962 0 0 -.44962 -1596.9046 937.621)"><path d="M0 0c-.637 0-1.164.537-1.164 1.287 0 .747.527 1.281 1.164 1.281.738 0 1.268-.534 1.268-1.281C1.268.537.738 0 0 0m8.256 7.497c-5.11-1.323-9.65-3.725-10.668-2.69-.015.015 0 0-.017.013l-5.14 3.886c-.426.322-.866.047-.798-.487.254-2.002.49-3.164.66-4.381.039-.279-.013-.428-.21-.428-1.163 0-2.274-.835-2.956-2.032-.96-1.685-1.837-3.217-3.419-3.993-.092-.046-.138-.159-.09-.251.334-.648.919-1.023 1.503-1.22.649-.218.952-.073 1.442-.317a.188.188 0 0 0 .094-.217c-.036-.127-.115-.228-.192-.381-1.323-2.379.204-5.405-2.054-7.264-.112-.092-.074-.291.068-.316 2.629-.451 3.438 1.447 3.758 1.09-.789-2.395-.404-2.726-.9-5.78-.111-.68-.599-1.565-.167-1.439 3.416.998 4.038 2.376 4.283 2.623.282.284.35.936 1.117-.334.167-.276.415-.618.539-.556.092-.015.233.215.287.293.662.958 1.489 1.479 2.424 1.905.045.021.089.047.138.042 1.18-.116 2.178-.521 3.544-1.083.098-.04.216.007.247.11.597 1.963-.373 3.735-.338 3.992.034.257.162.129.648-.357 1.049-1.05 2.684-1.124 3.645-.874.516.135 1.196.477 1.416.825.078.122-.001.272-.143.292-2.914.419-3.068 3.404-4.282 5.41-.067.112-.129.292-.082.325l.92-.467a493.42 493.42 0 0 1 4.25-.898c.407-.064.601.396.601.396.032.122.291 1.109.266 1.98-.011.394-.442.637-.637.438-.077-.079-.151-.162-.231-.221a.422.422 0 0 0-.358-.055c-1.044.282-1.398.384-2.525.846L3.434-1.734c-.098.298.144.418.237.498 1.15.983 2.162 1.688 6.157 3.742.38.196-.379 2.681-.761 4.323-.127.572-.595.724-.811.668" style="fill:#fff;fill-opacity:1;fill-rule:nonzero;stroke:none" transform="translate(3599.843 1873.148)"/><path d="M0 0c-2.492.406-5.054.657-6.454.672-25.747.273-26.482-9.375-23.862-12.729 1.962-2.512 8.02-3.578 9.455-3.537 0 0 .019.112-.107.223-.203.181-.332.296-.578.294-.742-.102-5.393.982-7.056 2.788-2.288 2.483 2.419 7.181 16.994 9.538 3.501.566 7.433.978 11.481 1.02C.94-1.72 1.053-.172 0 0" style="fill:#fff;fill-opacity:1;fill-rule:nonzero;stroke:none" transform="translate(3647.673 1881.147)"/><path d="M0 0c-2.163-.122-2.755-.011-2.755-.011C-3.828-1.469-4.56-2.014-5.54-2.63c-1.099-.691-2.471-1.307-3.627-1.307-.131.005-.103.111-.03.184.081.085.136.135.136.135 2.425 2.571 3.774 6.122 4.946 8.093.716 1.204 1.274 2.516 3.105 3.026 2.581.718 4.885-1.473 4.757-3.931C3.641 1.541 2.185.124 0 0m5.354-3.833c-.631.748-.843.859-1.687 1.502-.274.212-.177.437.528 1.243 1.12 1.283 2.15 2.352 2 5.286C6.018 7.656 3.036 10.02.378 10.02c-3.133 0-5.118-1.611-5.91-3.029-.904-1.618-1.41-3.37-2.054-4.955-.318-.781-1.691-4.15-3.334-4.783-.442-.288-1.836-.355-2.706.63-.418.533-.927 1.397-.613 2.144h.096c.32-.215.478-.785.864-1.079.425-.322 1.152-.331 1.567-.099.57.319.72.957.72 1.6 0 .782-.326 1.273-.858 1.745-.593.506-1.783.522-2.506.216-1.531-.65-1.541-2.302-1.576-2.939.102-1.075.642-2.633 2.066-3.408.292-.159-.766-1.398-2.318-1.572-.483-.059-.8-.001-1.256.308-.375.318-.626.495-.808.87-.122.252-.745-.326-.919-1.137-.072-.335-.668-.273-1.168.025-.594.354-.822 1.128-.981 1.156-.158.027-.593-.489-.77-.927-.277-.685-.619-1.027-1.078-.797a1.756 1.756 0 0 0-.393.279 2.224 2.224 0 0 0-.253.283c-.044.061-.089.122-.127.186l-.016.027c-.229.4-.336.818-.492 1.06-.038.073-.074.123-.112.135-.188.152-.844-.519-1.051-.752-.259-.292-.765-.755-1.364-.695-.695.07-.747 1.179-1.316 2.346-.027.152-.241.235-.366.144-1.075-.779-1.429-1-2.051-1.243-.699-.273-.788.304-.788.304-.133.974-.653 2.265-1.164 2.361-.484.017-1.415-1.431-2.662-1.752-.423-.11-.429.68-.43.688-.056.776-.662 1.999-1.299 2.068-.338.037-.246-.705-2.358-1.628-.931-.407-2.274-.35-3.061-.125-.167-.998-.662-2.948-1.027-3.017 0 0-3.187 1.216-4.032 1.109-1.09-.525-2.878-2.786-2.878-2.786-1.146-.058-1.865 1.542-2.188 1.195-.414-.443-1.616-5.367-1.014-8.586.139-.742.287-1.442.443-2.113h64.438c-.223.64-.379 1.335-.64 1.959-1.482 3.751-2.64 7.517-5.281 10.731" style="fill:#fff;fill-opacity:1;fill-rule:nonzero;stroke:none" transform="translate(3645.695 1860.687)"/></g></svg>